<svg width="981" height="270" viewBox="0 0 981 270" fill="none" xmlns="http://www.w3.org/2000/svg">
<g filter="url(#filter0_d_92_1152)">
<path d="M95.0991 227.195L56.0952 188.191L41.7251 134.563L56.0952 80.9338L95.0991 41.9299L148.582 134.563L95.0991 227.195ZM241.867 188.191L202.862 227.196L149.38 134.563L202.862 41.929L241.867 80.9338L256.237 134.563L241.867 188.191Z" stroke="#242424" stroke-width="0.69189" shape-rendering="crispEdges"/>
</g>
<circle cx="148.734" cy="135.118" r="2.42161" fill="white"/>
<circle cx="202.702" cy="42.4043" r="2.42161" fill="white"/>
<circle cx="242.14" cy="80.4582" r="2.42161" fill="white"/>
<circle cx="255.977" cy="135.118" r="2.42161" fill="white"/>
<circle cx="241.448" cy="188.393" r="2.42161" fill="white"/>
<circle cx="203.394" cy="227.139" r="2.42161" fill="white"/>
<circle cx="94.7671" cy="227.139" r="2.42161" fill="white"/>
<circle cx="56.7131" cy="189.085" r="2.42161" fill="white"/>
<circle cx="40.7995" cy="135.118" r="2.42161" fill="white"/>
<circle cx="56.7131" cy="80.4582" r="2.42161" fill="white"/>
<circle cx="94.7671" cy="42.4043" r="2.42161" fill="white"/>
<path d="M338.241 173.173H356.955C376.644 173.173 385.106 160.806 385.106 136.398C385.106 111.989 376.644 102.226 355.002 102.226H338.241V173.173ZM361.511 191.561H316.274V83.5126H358.094C387.384 83.5126 408.212 103.528 408.212 136.398C408.212 169.268 389.499 191.561 361.511 191.561ZM487.69 191.561H467.675V180.333C462.142 189.445 453.843 193.676 442.778 193.676C426.831 193.676 415.603 181.797 415.603 164.223V111.501H436.757V160.969C436.757 171.057 441.314 175.939 450.263 175.939C461.003 175.939 466.698 168.291 466.698 157.714V111.501H487.69V191.561ZM545.456 161.131L545.619 152.344C543.503 154.46 539.761 155.599 531.95 157.063C519.909 159.341 516.003 162.759 516.003 169.593C516.003 175.614 519.583 178.543 526.255 178.543C537.157 178.543 545.293 170.569 545.456 161.131ZM566.773 191.561H547.083C546.432 189.608 545.944 186.842 545.782 184.401C540.737 189.933 532.276 193.676 521.536 193.676C503.311 193.676 494.849 184.726 494.849 171.708C494.849 148.602 510.308 145.998 531.625 143.069C542.202 141.605 545.131 139.489 545.131 133.957C545.131 128.75 539.924 125.658 531.625 125.658C522.024 125.658 518.119 130.377 517.142 137.537H497.453C497.778 120.939 506.891 109.386 532.601 109.386C557.986 109.386 566.773 120.776 566.773 140.954V191.561ZM597.255 191.561H576.101V82.2108H597.255V191.561ZM627.777 191.561H606.623V111.501H627.777V191.561ZM627.777 101.9H606.623V82.2108H627.777V101.9ZM682.84 159.667V138.838H702.529V161.62C702.529 178.543 692.766 193.676 670.148 193.676C646.715 193.676 637.44 178.705 637.44 161.457V89.8588H658.269V111.501H702.529V126.471H658.269V159.341C658.269 169.43 661.849 175.288 670.473 175.288C678.935 175.288 682.84 169.593 682.84 159.667ZM762.106 194.001V180.984C759.177 188.143 750.39 192.374 740.464 192.374C723.704 192.374 711.174 180.984 711.174 163.41V111.501H732.328V160.318C732.328 170.244 736.884 175.288 745.834 175.288C755.435 175.288 762.106 168.942 762.106 160.318V111.501H783.26V193.676C783.26 216.294 766.988 229.475 746.485 229.475C723.053 229.475 711.174 216.62 711.174 195.954H730.863C730.863 205.392 736.396 211.25 747.461 211.25C755.109 211.25 762.106 204.578 762.106 194.001Z" fill="white"/>
<path d="M856.315 155.599V83.5126H879.422V155.599C879.422 181.797 863.312 195.303 834.998 195.303C808.8 195.303 792.365 182.936 792.365 156.901V83.5126H815.309V154.785C815.309 168.128 822.469 176.59 834.673 176.59C849.155 176.59 856.315 169.756 856.315 155.599ZM978.726 191.561H951.226L930.56 154.46L908.755 191.561H882.394L917.379 136.398L884.347 83.5126H911.033L930.56 118.498L950.249 83.5126H976.448L943.578 135.421L978.726 191.561Z" fill="white" fill-opacity="0.6"/>
<defs>
<filter id="filter0_d_92_1152" x="-3.8147e-06" y="-3.8147e-06" width="297.961" height="269.125" filterUnits="userSpaceOnUse" color-interpolation-filters="sRGB">
<feFlood flood-opacity="0" result="BackgroundImageFix"/>
<feColorMatrix in="SourceAlpha" type="matrix" values="0 0 0 0 0 0 0 0 0 0 0 0 0 0 0 0 0 0 127 0" result="hardAlpha"/>
<feOffset/>
<feGaussianBlur stdDeviation="20.6832"/>
<feComposite in2="hardAlpha" operator="out"/>
<feColorMatrix type="matrix" values="0 0 0 0 0 0 0 0 0 0.736647 0 0 0 0 0.712092 0 0 0 0.25 0"/>
<feBlend mode="normal" in2="BackgroundImageFix" result="effect1_dropShadow_92_1152"/>
<feBlend mode="normal" in="SourceGraphic" in2="effect1_dropShadow_92_1152" result="shape"/>
</filter>
</defs>
</svg>
